<svg xmlns="http://www.w3.org/2000/svg" width="1073.865" height="1073.865" viewBox="0 0 1073.865 1073.865">
  <g id="Group_120" data-name="Group 120" transform="translate(8 -353)">
    <path id="Path_117" data-name="Path 117" d="M0,0H1073.865V1073.865H0Z" transform="translate(-8 353)" fill="none"/>
    <text id="_data_:_algo_" data-name="[data : algo]" transform="translate(852.416 1137.754)" fill="#00b89e" font-size="117" font-family="Helvetica-Bold, Helvetica" font-weight="700"><tspan x="-645.315" y="0">[</tspan><tspan y="0" fill="#333">data</tspan><tspan y="0" xml:space="preserve" fill="#333" font-size="111"> : algo</tspan><tspan y="0">]</tspan></text>
    <path id="Path_55" data-name="Path 55" d="M442.626,117.508,239.225,1.279a9.666,9.666,0,0,0-9.608,0L26.216,117.508a9.685,9.685,0,0,0-4.882,8.408V339a9.685,9.685,0,0,0,4.882,8.408l203.4,116.229a9.666,9.666,0,0,0,9.609,0l203.4-116.229A9.685,9.685,0,0,0,447.508,339V125.915a9.688,9.688,0,0,0-4.883-8.408Z" transform="translate(296.026 564.21)" fill="#333" stroke="#fff" stroke-width="1"/>
    <path id="Path_56" data-name="Path 56" d="M2216.441,70.312,2257.577,28.3" transform="translate(-1640.959 673.86)" fill="#333" stroke="#fff" stroke-width="7"/>
    <rect id="Rectangle_5" data-name="Rectangle 5" width="115.823" height="117.567" transform="translate(470.616 738.252)" fill="#333" stroke="#fff" stroke-width="7"/>
    <path id="Path_57" data-name="Path 57" d="M2130,155.841l42.416-40.767" transform="translate(-1690.251 734.872)" fill="#333" stroke="#fff" stroke-width="7"/>
    <path id="Path_58" data-name="Path 58" d="M2258.623,155.963,2215.941,114.9" transform="translate(-1641.313 734.75)" fill="#333" stroke="#fff" stroke-width="7"/>
    <path id="Path_59" data-name="Path 59" d="M2130,28l42.743,42.867" transform="translate(-1690.262 673.648)" fill="#333" stroke="#fff" stroke-width="7"/>
    <ellipse id="Ellipse_24" data-name="Ellipse 24" cx="19.588" cy="19.594" rx="19.588" ry="19.594" transform="translate(421.804 682.063)" fill="#333" stroke="#fff" stroke-width="7"/>
    <ellipse id="Ellipse_25" data-name="Ellipse 25" cx="19.588" cy="19.594" rx="19.588" ry="19.594" transform="translate(596.07 682.063)" fill="#333" stroke="#fff" stroke-width="7"/>
    <ellipse id="Ellipse_26" data-name="Ellipse 26" cx="19.588" cy="19.594" rx="19.588" ry="19.594" transform="translate(596.07 871.109)" fill="#333" stroke="#fff" stroke-width="7"/>
    <ellipse id="Ellipse_27" data-name="Ellipse 27" cx="19.588" cy="19.594" rx="19.588" ry="19.594" transform="translate(421.804 871.109)" fill="#333" stroke="#fff" stroke-width="7"/>
    <line id="Line_3" data-name="Line 3" y1="35.781" transform="translate(530.098 707.611)" fill="#333" stroke="#fff" stroke-width="7"/>
    <rect id="Rectangle_6" data-name="Rectangle 6" width="39.175" height="39.189" transform="translate(509.722 666.735)" fill="#333" stroke="#fff" stroke-width="7"/>
    <line id="Line_3-2" data-name="Line 3" y2="35.769" transform="translate(482.058 797.882) rotate(90)" fill="#333" stroke="#fff" stroke-width="7"/>
    <rect id="Rectangle_6-2" data-name="Rectangle 6" width="39.189" height="39.175" transform="translate(446.458 777.438) rotate(90)" fill="#333" stroke="#fff" stroke-width="7"/>
    <line id="Line_3-3" data-name="Line 3" y1="36.195" transform="translate(611.987 797.882) rotate(90)" fill="#333" stroke="#fff" stroke-width="7"/>
    <rect id="Rectangle_6-3" data-name="Rectangle 6" width="39.189" height="39.175" transform="translate(650.979 777.438) rotate(90)" fill="#333" stroke="#fff" stroke-width="7"/>
    <line id="Line_3-4" data-name="Line 3" y2="35.781" transform="translate(530.098 849.821)" fill="#333" stroke="#fff" stroke-width="7"/>
    <rect id="Rectangle_6-4" data-name="Rectangle 6" width="39.175" height="39.189" transform="translate(509.722 887.289)" fill="#333" stroke="#fff" stroke-width="7"/>
    <path id="Path_60" data-name="Path 60" d="M22.082,175.147,0,163.1v-6.67L22.082,144.46v7.834L6.695,159.686l15.387,7.67Z" transform="translate(495.112 636.648)" fill="#fff" stroke="#fff" stroke-width="1"/>
    <path id="Path_61" data-name="Path 61" d="M180.094,154.2l14.644-39.119h4.626L184.686,154.2Z" transform="translate(338.986 661.811)" fill="#fff" stroke="#fff" stroke-width="1"/>
    <path id="Path_62" data-name="Path 62" d="M348.843,175.128v-7.791l15.384-7.608-15.384-7.55v-7.742l22.082,11.99v6.63Z" transform="translate(192.486 636.667)" fill="#fff" stroke="#fff" stroke-width="1"/>
  </g>
</svg>
